{"title":"Hassel  S01 E04 - 1080p x264 - SWE (ENG SUBS) [BRSHNKV]","magnet":"magnet:?xt=urn:btih:215157bca5a27440b474af1b6680e7d7a54adc5b&dn=Hassel++S01+E04+-+1080p+x264+-+SWE+%28ENG+SUBS%29+%5BBRSHNKV%5D&tr=udp%3A%2F%2Ftracker.leechers-paradise.org%3A6969&tr=udp%3A%2F%2Fzer0day.ch%3A1337&tr=udp%3A%2F%2Fopen.demonii.com%3A1337&tr=udp%3A%2F%2Ftracker.coppersurfer.tk%3A6969&tr=udp%3A%2F%2Fexodus.desync.com%3A6969","uploader":"BRSHNKV","categoryP":"video","categoryS":"hd___tv_shows","size":"551269956","seeders":"14","leechers":"10","description":" <a href=\"http://www.imdb.com/title/tt6038946/?ref_=fn_al_tt_1\" rel=\"nofollow\" target=\"_NEW\">http://www.imdb.com/title/tt6038946/?ref_=fn_al_tt_1</a>\r\n\r\n\r\n\r\nTech:\r\n\r\nFormat                                   : MPEG-4\r\nFormat profile                           : Base Media / Version 2\r\nCodec ID                                 : mp42\r\nFile size                                : 526 MiB\r\nDuration                                 : 43mn 6s\r\nOverall bit rate mode                    : Variable\r\nOverall bit rate                         : 1 705 Kbps\r\nMovie name                               : Hassel S01 E04 - 1080p x264 [BRSHNKV]\r\nEncoded date                             : UTC 2018-03-25 16:54:20\r\nTagged date                              : UTC 2018-03-25 16:54:20\r\nWriting application                      : HandBrake 1.0.2 2017012200\r\n\r\nVideo\r\nID                                       : 1\r\nFormat                                   : AVC\r\nFormat/Info                              : Advanced Video Codec\r\nFormat profile                           : <a href=\"/cdn-cgi/l/email-protection\" class=\"__cf_email__\" data-cfemail=\"226f434b4c626e16\">[email&#xA0;protected]</a>\r\nFormat settings, CABAC                   : Yes\r\nFormat settings, ReFrames                : 4 frames\r\nCodec ID                                 : avc1\r\nCodec ID/Info                            : Advanced Video Coding\r\nDuration                                 : 43mn 6s\r\nBit rate                                 : 1 550 Kbps\r\nWidth                                    : 1 920 pixels\r\nHeight                                   : 1 080 pixels\r\nDisplay aspect ratio                     : 16:9\r\nFrame rate mode                          : Constant\r\nFrame rate                               : 25.000 fps\r\nColor space                              : YUV\r\nChroma subsampling                       : 4:2:0\r\nBit depth                                : 8 bits\r\nScan type                                : Progressive\r\nBits/(Pixel*Frame)                       : 0.030\r\nStream size                              : 478 MiB (91%)\r\nWriting library                          : x264 core 148 r2708 86b7198\r\nEncoded date                             : UTC 2018-03-25 16:54:20\r\nTagged date                              : UTC 2018-03-25 16:54:20\r\nColor range                              : Limited\r\nColor primaries                          : BT.709\r\nTransfer characteristics                 : BT.709\r\nMatrix coefficients                      : BT.709\r\n\r\nAudio\r\nID                                       : 2\r\nFormat                                   : AAC\r\nFormat/Info                              : Advanced Audio Codec\r\nFormat profile                           : LC\r\nCodec ID                                 : 40\r\nDuration                                 : 43mn 6s\r\nBit rate mode                            : Variable\r\nBit rate                                 : 150 Kbps\r\nChannel(s)                               : 2 channels\r\nChannel positions                        : Front: L R\r\nSampling rate                            : 48.0 KHz\r\nCompression mode                         : Lossy\r\nStream size                              : 46.3 MiB (9%)\r\nTitle                                    : Stereo / Stereo\r\nLanguage                                 : Swedish\r\nEncoded date                             : UTC 2018-03-25 16:54:20\r\nTagged date                              : UTC 2018-03-25 16:54:20","last_updated":"2018-03-31T12:07:41.464Z","parsed":{"xt":"urn:btih:215157bca5a27440b474af1b6680e7d7a54adc5b","dn":"Hassel  S01 E04 - 1080p x264 - SWE (ENG SUBS) [BRSHNKV]","tr":["udp://exodus.desync.com:6969","udp://open.demonii.com:1337","udp://tracker.coppersurfer.tk:6969","udp://tracker.leechers-paradise.org:6969","udp://zer0day.ch:1337"],"infoHash":"215157bca5a27440b474af1b6680e7d7a54adc5b","infoHashBuffer":{"type":"Buffer","data":[33,81,87,188,165,162,116,64,180,116,175,27,102,128,231,215,165,74,220,91]},"name":"Hassel  S01 E04 - 1080p x264 - SWE (ENG SUBS) [BRSHNKV]","announce":["udp://exodus.desync.com:6969","udp://open.demonii.com:1337","udp://tracker.coppersurfer.tk:6969","udp://tracker.leechers-paradise.org:6969","udp://zer0day.ch:1337"],"urlList":[]}}